<svg id="Layer_1" data-name="Layer 1" xmlns="http://www.w3.org/2000/svg" viewBox="0 0 48 48"><defs><style>.cls-1{fill:#fff;}</style></defs><title>Artboard 1</title><path class="cls-1" d="M43.92,24a22,22,0,0,1-.68,5.84,21.75,21.75,0,0,1-2.37,5.44A22.44,22.44,0,0,1,37,39.82a22.33,22.33,0,0,1-5.08,3.26A22.31,22.31,0,0,1,26,44.74a23,23,0,0,1-6.14-.12A22.57,22.57,0,0,1,14,42.7a23.33,23.33,0,0,1-5.13-3.58,23.51,23.51,0,0,1-3.9-5,23.11,23.11,0,0,1-2.31-5.93,23.87,23.87,0,0,1-.5-6.39,23.59,23.59,0,0,1,1.39-6.32,24,24,0,0,1,3.2-5.69A24.44,24.44,0,0,1,11.5,5.3a24.12,24.12,0,0,1,5.92-3A24.75,24.75,0,0,1,24,1.14a3.4,3.4,0,0,1,.32,6.8H24a18.2,18.2,0,0,0-4.72.52,17.91,17.91,0,0,0-4.41,1.88,18.62,18.62,0,0,0-3.72,3.12,18.51,18.51,0,0,0-2.68,4.11,18.47,18.47,0,0,0-1.38,4.76,19.14,19.14,0,0,0,.06,5A18.73,18.73,0,0,0,8.7,32.17a19.51,19.51,0,0,0,2.9,4.22,19.7,19.7,0,0,0,4,3.23,19.28,19.28,0,0,0,4.85,1.93,20,20,0,0,0,5.27.44A19.76,19.76,0,0,0,31,40.87a20.13,20.13,0,0,0,4.71-2.61,20.62,20.62,0,0,0,3.79-3.91A20.28,20.28,0,0,0,42,29.46,20.9,20.9,0,0,0,43,24v0a.46.46,0,0,1,.92,0Z"/></svg>
